HIERARCHY
ROOT Hips
{
	OFFSET 0.00000 0.00000 0.00000
	CHANNELS 6 Xposition Yposition Zposition Zrotation Yrotation Xrotation 
	JOINT LHipJoint
	{
		OFFSET 0 0 0
		CHANNELS 3 Zrotation Yrotation Xrotation
		JOINT LeftUpLeg
		{
			OFFSET 1.58895 -1.83665 0.71753
			CHANNELS 3 Zrotation Yrotation Xrotation
			JOINT LeftLeg
			{
				OFFSET 2.50528 -6.88321 0.00000
				CHANNELS 3 Zrotation Yrotation Xrotation
				JOINT LeftFoot
				{
					OFFSET 2.63244 -7.23257 0.00000
					CHANNELS 3 Zrotation Yrotation Xrotation
					JOINT LeftToeBase
					{
						OFFSET 0.23691 -0.65090 1.72750
						CHANNELS 3 Zrotation Yrotation Xrotation
						End Site
						{
							OFFSET 0.00000 -0.00000 0.92561
						}
					}
				}
			}
		}
	}
	JOINT RHipJoint
	{
		OFFSET 0 0 0
		CHANNELS 3 Zrotation Yrotation Xrotation
		JOINT RightUpLeg
		{
			OFFSET -1.51435 -1.83665 0.71753
			CHANNELS 3 Zrotation Yrotation Xrotation
			JOINT RightLeg
			{
				OFFSET -2.54551 -6.99375 0.00000
				CHANNELS 3 Zrotation Yrotation Xrotation
				JOINT RightFoot
				{
					OFFSET -2.66027 -7.30903 0.00000
					CHANNELS 3 Zrotation Yrotation Xrotation
					JOINT RightToeBase
					{
						OFFSET -0.22981 -0.63138 2.03959
						CHANNELS 3 Zrotation Yrotation Xrotation
						End Site
						{
							OFFSET -0.00000 -0.00000 1.07060
						}
					}
				}
			}
		}
	}
	JOINT LowerBack
	{
		OFFSET 0 0 0
		CHANNELS 3 Zrotation Yrotation Xrotation
		JOINT Spine
		{
			OFFSET -0.02651 1.86275 -0.11152
			CHANNELS 3 Zrotation Yrotation Xrotation
			JOINT Spine1
			{
				OFFSET 0.01019 1.86224 0.04087
				CHANNELS 3 Zrotation Yrotation Xrotation
				JOINT Neck
				{
					OFFSET 0 0 0
					CHANNELS 3 Zrotation Yrotation Xrotation
					JOINT Neck1
					{
						OFFSET -0.01926 1.80512 0.08867
						CHANNELS 3 Zrotation Yrotation Xrotation
						JOINT Head
						{
							OFFSET 0.05516 1.76451 -0.38475
							CHANNELS 3 Zrotation Yrotation Xrotation
							End Site
							{
								OFFSET 0.01592 1.82587 -0.14001
							}
						}
					}
				}
				JOINT LeftShoulder
				{
					OFFSET 0 0 0
					CHANNELS 3 Zrotation Yrotation Xrotation
					JOINT LeftArm
					{
						OFFSET 3.47116 1.51376 0.14491
						CHANNELS 3 Zrotation Yrotation Xrotation
						JOINT LeftForeArm
						{
							OFFSET 4.78095 -0.00000 0.00000
							CHANNELS 3 Zrotation Yrotation Xrotation
							JOINT LeftHand
							{
								OFFSET 3.58615 -0.00000 -0.00000
								CHANNELS 3 Zrotation Yrotation Xrotation
								JOINT LeftFingerBase
								{
									OFFSET 0 0 0
									CHANNELS 3 Zrotation Yrotation Xrotation
									JOINT LeftHandIndex1
									{
										OFFSET 0.65981 -0.00000 0.00000
										CHANNELS 3 Zrotation Yrotation Xrotation
										End Site
										{
											OFFSET 0.53196 -0.00000 0.00000
										}
									}
								}
								JOINT LThumb
								{
									OFFSET 0 0 0
									CHANNELS 3 Zrotation Yrotation Xrotation
									End Site
									{
										OFFSET 0.54008 -0.00000 0.54008
									}
								}
							}
						}
					}
				}
				JOINT RightShoulder
				{
					OFFSET 0 0 0
					CHANNELS 3 Zrotation Yrotation Xrotation
					JOINT RightArm
					{
						OFFSET -3.31725 1.61216 0.35156
						CHANNELS 3 Zrotation Yrotation Xrotation
						JOINT RightForeArm
						{
							OFFSET -4.48913 -0.00000 0.00000
							CHANNELS 3 Zrotation Yrotation Xrotation
							JOINT RightHand
							{
								OFFSET -3.70510 -0.00000 0.00000
								CHANNELS 3 Zrotation Yrotation Xrotation
								JOINT RightFingerBase
								{
									OFFSET 0 0 0
									CHANNELS 3 Zrotation Yrotation Xrotation
									JOINT RightHandIndex1
									{
										OFFSET -0.44914 -0.00000 0.00000
										CHANNELS 3 Zrotation Yrotation Xrotation
										End Site
										{
											OFFSET -0.36211 -0.00000 0.00000
										}
									}
								}
								JOINT RThumb
								{
									OFFSET 0 0 0
									CHANNELS 3 Zrotation Yrotation Xrotation
									End Site
									{
										OFFSET -0.36763 -0.00000 0.36763
									}
								}
							}
						}
					}
				}
			}
		}
	}
}
MOTION
Frames: 7
Frame Time: .0083333
0.6131 18.5445 5.9562 -3.7384 27.4935 6.8880 0.0000 0.0000 0.0000 -10.7202 -22.5650 -19.1471 3.7616 11.8362 35.1549 1.0818 -4.3753 -18.6877 8.1201 -16.2069 -52.9943 0.0000 0.0000 0.0000 16.9738 -15.8638 -0.2204 0.0000 -0.0000 0.0000 -1.6852 -5.3285 -26.9275 -0.0060 -0.5012 1.3771 -0.4729 6.5151 15.7880 1.2711 8.6272 1.9925 -0.2467 4.2259 -6.9205 -11.2801 -10.8837 -7.1158 12.1532 -16.2886 25.6360 4.1922 -7.1932 11.4736 0.0000 -0.0000 0.0000 -80.3145 15.3576 57.4851 87.4606 -59.9756 -57.8010 -0.0000 0.0000 -34.4262 10.7688 -8.2662 -1.5664 -7.1250 0.0000 -0.0000 -11.6181 21.6290 6.6527 0.0000 -0.0000 0.0000 77.0056 7.5931 33.9152 -62.1662 56.8601 -36.1494 0.0000 -0.0000 -18.3867 -38.8803 -65.4570 36.2593 7.1250 -0.0000 -0.0000 140.5781 77.6710 149.0984
0.6069 18.5434 5.9521 -3.7040 27.5030 6.8995 0.0000 0.0000 0.0000 -10.7236 -22.6070 -19.1547 3.7601 11.8341 35.1475 1.0826 -4.3604 -18.6963 8.1260 -16.2112 -53.0153 0.0000 0.0000 0.0000 16.9666 -15.8426 -0.2327 0.0000 -0.0000 0.0000 -1.6955 -5.2703 -26.9680 -0.0103 -0.6560 1.8026 -0.4745 6.3693 15.6740 1.2537 8.4347 1.9585 -0.2112 4.1334 -6.8897 -11.3647 -10.8608 -7.0442 12.2479 -16.2760 25.6210 4.2462 -7.1910 11.4695 0.0000 0.0000 0.0000 -80.3636 15.3325 57.4944 87.4956 -59.9763 -57.8313 -0.0000 0.0000 -34.4596 10.7989 -8.2520 -1.5682 -7.1250 0.0000 -0.0000 -11.5974 21.6421 6.6368 0.0000 0.0000 0.0000 76.1256 6.0751 35.9932 -63.9601 57.2760 -37.6550 0.0000 -0.0000 -20.8665 -42.1301 -64.1426 39.1443 7.1250 -0.0000 -0.0000 145.7215 78.3899 152.8213
0.6001 18.5433 5.9487 -3.6791 27.5004 6.9140 0.0000 0.0000 0.0000 -10.7154 -22.6507 -19.1606 3.7571 11.8299 35.1330 1.0865 -4.2840 -18.7393 8.1765 -16.2476 -53.1961 0.0000 0.0000 0.0000 16.9727 -15.8062 -0.2506 0.0000 -0.0000 0.0000 -1.7007 -5.2637 -27.0010 -0.0123 -0.7151 1.9653 -0.5092 6.2441 15.5477 1.2762 8.2668 1.9302 -0.1205 4.0544 -6.8571 -11.3896 -10.8375 -7.0104 12.1709 -16.2244 25.6264 4.2317 -7.1806 11.4516 0.0000 -0.0000 0.0000 -80.5211 15.2961 57.4644 87.4900 -59.9762 -57.8265 -0.0000 0.0000 -34.4024 10.7174 -8.3382 -1.5722 -7.1250 0.0000 -0.0000 -11.6505 21.5591 6.6909 0.0000 -0.0000 0.0000 75.9971 4.6614 36.9434 -65.4926 57.6042 -38.9466 0.0000 -0.0000 -21.3922 -43.6716 -63.7151 40.5623 7.1250 -0.0000 -0.0000 148.5346 78.5071 155.0513
0.5956 18.5444 5.9478 -3.6484 27.4641 6.9439 0.0000 0.0000 0.0000 -10.7198 -22.6694 -19.1606 3.7506 11.8210 35.1015 1.0874 -4.2373 -18.7535 8.2366 -16.2905 -53.4104 0.0000 0.0000 0.0000 16.9654 -15.7368 -0.2645 0.0000 -0.0000 0.0000 -1.6988 -5.3205 -27.0186 -0.0093 -0.6221 1.7095 -0.6123 6.1184 15.3775 1.3094 8.0882 1.8813 0.0237 3.9722 -6.8330 -11.3099 -10.8166 -6.9708 11.9346 -16.1544 25.6722 4.1457 -7.1674 11.4194 -0.0000 0.0000 0.0000 -80.7291 15.3574 57.3292 87.4071 -59.9746 -57.7547 -0.0000 0.0000 -34.2620 10.6153 -8.3472 -1.5585 -7.1250 0.0000 -0.0000 -11.7229 21.5535 6.7358 -0.0000 0.0000 0.0000 76.3219 3.3013 37.1428 -66.5280 57.8123 -39.8219 0.0000 -0.0000 -19.9235 -40.8719 -64.6583 38.0288 7.1250 -0.0000 -0.0000 143.6056 78.1234 151.2630
0.5901 18.5456 5.9464 -3.6343 27.1181 7.0187 0.0000 0.0000 0.0000 -10.7094 -22.4894 -19.2084 3.7426 11.8097 35.0621 1.0986 -4.1579 -18.8627 8.2581 -16.3058 -53.4870 0.0000 0.0000 0.0000 16.9330 -15.3417 -0.2839 0.0000 -0.0000 0.0000 -1.6946 -5.3820 -27.0229 -0.0076 -0.5642 1.5503 -0.7868 6.1136 15.1429 1.3082 8.0554 1.8181 0.1453 3.9625 -6.7954 -11.3424 -10.8354 -6.8694 11.8884 -16.1779 25.6959 4.1354 -7.1907 11.4101 0.0000 -0.0000 0.0000 -80.8329 15.4446 57.2539 87.4543 -59.9755 -57.7955 -0.0000 0.0000 -34.1942 10.6051 -8.2087 -1.5314 -7.1250 0.0000 -0.0000 -11.7390 21.6917 6.7077 0.0000 -0.0000 0.0000 76.7158 1.8122 37.6812 -68.1379 58.1147 -41.1867 0.0000 -0.0000 -20.0957 -42.7928 -63.9591 39.7535 7.1250 -0.0000 -0.0000 146.9147 78.4452 153.7645
0.5769 18.5501 5.9443 -3.6891 26.1835 7.2571 0.0000 0.0000 0.0000 -10.5763 -21.9358 -19.4879 3.7339 11.7976 35.0197 1.1274 -3.9518 -19.1441 8.2684 -16.3132 -53.5238 0.0000 0.0000 0.0000 16.9383 -14.2905 -0.4238 0.0000 0.0000 -0.0000 -1.6770 -5.5429 -26.9889 -0.0057 -0.4858 1.3349 -1.1332 6.3383 14.7314 1.2838 8.2985 1.7129 0.2939 4.0919 -6.7324 -11.5455 -10.8539 -6.8155 12.0815 -16.2463 25.8182 4.2326 -7.2206 11.4962 0.0000 0.0000 0.0000 -80.9001 15.4913 57.1643 87.5136 -59.9766 -57.8469 -0.0000 0.0000 -34.1895 10.5882 -8.1893 -1.5253 -7.1250 0.0000 -0.0000 -11.7523 21.7116 6.7102 0.0000 0.0000 0.0000 77.1904 0.3356 38.0937 -69.6910 58.3827 -42.5074 0.0000 -0.0000 -20.1176 -43.3744 -63.7735 40.2827 7.1250 -0.0000 -0.0000 147.9801 78.5087 154.5969
0.5758 18.5485 5.9385 -3.6142 26.0911 7.2554 0.0000 0.0000 0.0000 -10.6708 -21.9852 -19.3948 3.7250 11.7852 34.9764 1.1397 -3.8467 -19.2668 8.3059 -16.3397 -53.6570 0.0000 0.0000 0.0000 16.8480 -14.1832 -0.3861 0.0000 0.0000 -0.0000 -1.6711 -5.6236 -26.9925 -0.0033 -0.3732 1.0255 -1.1510 6.2360 14.6818 1.2557 8.1595 1.6797 0.3067 4.0247 -6.7354 -11.6618 -10.8535 -6.8763 12.1590 -16.2731 26.0501 4.2764 -7.2268 11.6219 0.0000 -0.0000 0.0000 -80.9815 15.5177 57.0563 87.4511 -59.9754 -57.7927 -0.0000 0.0000 -34.1488 10.6331 -8.2981 -1.5521 -7.1250 0.0000 -0.0000 -11.7134 21.6019 6.7169 0.0000 -0.0000 0.0000 77.6787 -1.0452 38.2027 -70.9256 58.5796 -43.5599 0.0000 -0.0000 -19.0004 -39.0587 -65.0630 36.3467 7.1250 -0.0000 -0.0000 140.6028 77.9812 148.8865
